<svg class="pm-logo" fill="none" height="64" viewBox="0 0 175 64" width="175" xmlns="http://www.w3.org/2000/svg">
<path d="M76.3081 38.6201V25.2358C76.3077 25.1577 76.3244 25.0805 76.3569 25.0096C76.3895 24.9387 76.4372 24.8758 76.4966 24.8253C76.632 24.7103 76.8054 24.6502 76.9828 24.657H80.7394C81.8524 24.6028 82.9447 24.9719 83.7977 25.6906C84.5637 26.3817 84.9468 27.4705 84.9468 28.957V29.1371C84.9468 30.6256 84.5539 31.7173 83.7682 32.4123C82.8989 33.138 81.7899 33.511 80.6598 33.4578H77.9786V38.6201C77.9809 38.7087 77.959 38.7961 77.9154 38.8731C77.8718 38.9501 77.8081 39.0138 77.7311 39.0572C77.5526 39.1627 77.3491 39.2183 77.1419 39.2183C76.9346 39.2183 76.7312 39.1627 76.5526 39.0572C76.4757 39.0139 76.4123 38.9502 76.3691 38.8731C76.326 38.796 76.3049 38.7085 76.3081 38.6201ZM77.9757 32.0668H80.6716C81.026 32.0887 81.3811 32.037 81.7147 31.9151C82.0483 31.7931 82.3532 31.6035 82.6103 31.358C83.1089 30.7707 83.3547 30.0092 83.2939 29.2405V28.9954C83.3547 28.2266 83.1089 27.4651 82.6103 26.8779C82.353 26.6328 82.048 26.4436 81.7144 26.3221C81.3808 26.2007 81.0258 26.1496 80.6716 26.172H77.9904L77.9757 32.0668Z" fill="#FF6C37"></path>
<path d="M90.7805 34.9935V28.9954C90.7805 27.499 91.1685 26.4014 91.9443 25.7024C92.8427 25.0256 93.9362 24.6596 95.0601 24.6596C96.184 24.6596 97.2775 25.0256 98.1759 25.7024C98.9616 26.3994 99.3544 27.4971 99.3544 28.9954V34.9935C99.3544 36.4938 98.9616 37.5924 98.1759 38.2894C97.2782 38.972 96.1824 39.3416 95.0557 39.3416C93.9289 39.3416 92.8331 38.972 91.9355 38.2894C91.1635 37.5894 90.7805 36.4997 90.7805 34.9935ZM92.4541 34.9935C92.4541 36.8797 93.3203 37.8228 95.0527 37.8228C95.4071 37.8466 95.7625 37.7962 96.0963 37.6747C96.4301 37.5532 96.735 37.3632 96.9914 37.1169C97.4875 36.5259 97.7329 35.7637 97.675 34.9935V28.9954C97.7058 28.6147 97.6612 28.2317 97.5439 27.8683C97.4266 27.5049 97.2389 27.1683 96.9914 26.8779C96.7342 26.6328 96.4292 26.4436 96.0956 26.3221C95.762 26.2007 95.4069 26.1496 95.0527 26.172C93.3183 26.172 92.4521 27.1131 92.4541 28.9954V34.9935Z" fill="#FF6C37"></path>
<path d="M105.259 37.1671C105.264 36.9418 105.344 36.7247 105.486 36.5499C105.539 36.467 105.611 36.3974 105.695 36.3462C105.779 36.2951 105.874 36.2637 105.972 36.2545C106.148 36.2849 106.309 36.3733 106.429 36.5056C106.611 36.671 106.806 36.857 107.003 37.0608C107.274 37.3125 107.595 37.5029 107.946 37.619C108.41 37.794 108.903 37.8782 109.399 37.867C110.123 37.911 110.84 37.6919 111.417 37.2498C111.671 37.0187 111.869 36.7327 111.997 36.4134C112.125 36.0942 112.178 35.75 112.153 35.4069C112.166 35.0815 112.113 34.7569 111.997 34.4524C111.882 34.148 111.707 33.87 111.482 33.635C111.02 33.1726 110.464 32.816 109.852 32.5895C109.213 32.3532 108.577 32.1052 107.911 31.8217C107.268 31.5492 106.705 31.1185 106.272 30.5695C105.804 29.9412 105.566 29.1706 105.598 28.387C105.585 27.7567 105.722 27.1323 105.995 26.5648C106.228 26.0757 106.598 25.6652 107.059 25.3835C107.489 25.1219 107.955 24.923 108.441 24.7928C108.94 24.6707 109.453 24.6111 109.967 24.6156C110.766 24.6106 111.562 24.7301 112.324 24.97C113.073 25.2122 113.45 25.543 113.45 25.9416C113.439 26.1533 113.369 26.3578 113.249 26.5323C113.2 26.6283 113.126 26.709 113.035 26.7657C112.944 26.8225 112.838 26.8531 112.731 26.8542C112.428 26.7569 112.133 26.6384 111.847 26.4998C111.266 26.2404 110.636 26.1105 110 26.1188C109.316 26.0913 108.639 26.2648 108.052 26.618C107.805 26.794 107.608 27.0313 107.48 27.3067C107.351 27.5822 107.297 27.8862 107.321 28.1891C107.307 28.4725 107.358 28.7554 107.472 29.0154C107.585 29.2754 107.758 29.5051 107.975 29.6864C108.462 30.0853 109.017 30.3915 109.614 30.5901C110.259 30.8175 110.898 31.0774 111.552 31.3668C112.207 31.6841 112.766 32.1691 113.173 32.7726C113.647 33.5024 113.883 34.3623 113.848 35.2327C113.848 36.603 113.45 37.6337 112.654 38.3337C111.768 39.0624 110.644 39.4351 109.499 39.3791C108.453 39.4122 107.419 39.1546 106.511 38.6349C105.657 38.1358 105.259 37.6485 105.259 37.1671Z" fill="#FF6C37"></path>
<path d="M118.812 25.3953C118.808 25.2102 118.864 25.0288 118.971 24.8785C119.017 24.8058 119.082 24.7469 119.159 24.7079C119.236 24.669 119.321 24.6514 119.407 24.657H127.495C127.581 24.6511 127.667 24.6685 127.743 24.7075C127.82 24.7465 127.885 24.8056 127.931 24.8785C128.038 25.0295 128.094 25.2103 128.093 25.3953C128.096 25.5888 128.04 25.7786 127.931 25.9387C127.886 26.0135 127.822 26.0748 127.745 26.1159C127.668 26.157 127.582 26.1764 127.495 26.172H124.31V38.6201C124.313 38.7088 124.291 38.7965 124.248 38.8736C124.204 38.9507 124.14 39.0143 124.063 39.0572C123.884 39.1627 123.681 39.2183 123.473 39.2183C123.266 39.2183 123.063 39.1627 122.884 39.0572C122.807 39.0138 122.743 38.9501 122.7 38.8731C122.656 38.7961 122.634 38.7086 122.637 38.6201V26.172H119.422C119.336 26.1776 119.25 26.1597 119.173 26.1202C119.096 26.0806 119.032 26.021 118.986 25.9476C118.871 25.7867 118.81 25.5932 118.812 25.3953Z" fill="#FF6C37"></path>
<path d="M133.747 38.6201V25.4957C133.715 25.3066 133.76 25.1127 133.87 24.9562C133.98 24.7996 134.148 24.6931 134.336 24.6599C134.423 24.6452 134.512 24.6452 134.599 24.6599C135.126 24.6599 135.568 25.0114 135.933 25.7142L139.05 31.7124L142.191 25.7142C142.584 25.0114 143.027 24.6599 143.52 24.6599C143.708 24.6299 143.9 24.675 144.055 24.7855C144.209 24.8959 144.315 25.063 144.348 25.2506C144.36 25.32 144.36 25.3909 144.348 25.4603V38.5817C144.35 38.6701 144.328 38.7573 144.284 38.8342C144.24 38.9111 144.177 38.9749 144.101 39.0188C143.922 39.1252 143.719 39.1813 143.511 39.1813C143.304 39.1813 143.1 39.1252 142.922 39.0188C142.845 38.9749 142.782 38.9111 142.739 38.8342C142.695 38.7573 142.673 38.6701 142.674 38.5817V28.1596L139.675 33.8181C139.628 33.9558 139.54 34.0759 139.423 34.1624C139.307 34.2489 139.166 34.2977 139.021 34.3024C138.882 34.2934 138.748 34.2423 138.638 34.1558C138.528 34.0694 138.447 33.9516 138.405 33.8181L135.415 28.0621V38.6201C135.417 38.7086 135.395 38.7961 135.352 38.8731C135.308 38.9501 135.244 39.0138 135.167 39.0572C134.999 39.1725 134.8 39.236 134.596 39.2402C134.392 39.2444 134.191 39.1891 134.018 39.0808C133.933 39.0395 133.861 38.9737 133.813 38.8917C133.765 38.8097 133.742 38.7152 133.747 38.6201Z" fill="#FF6C37"></path>
<path d="M150.064 38.5286C150.066 38.4725 150.079 38.4173 150.102 38.3662L154.168 25.2447C154.283 24.8608 154.619 24.654 155.179 24.654C155.739 24.654 156.078 24.849 156.193 25.2447L160.273 38.4311C160.27 38.4547 160.27 38.4785 160.273 38.502C160.279 38.5213 160.279 38.5418 160.273 38.5611C160.269 38.6642 160.236 38.764 160.179 38.8499C160.122 38.9358 160.042 39.0044 159.949 39.0484C159.73 39.1819 159.477 39.2487 159.221 39.2403C159.095 39.2564 158.968 39.2281 158.86 39.1602C158.753 39.0923 158.672 38.9891 158.632 38.8682L157.748 35.9504H152.545L151.661 38.8682C151.622 38.994 151.539 39.1017 151.428 39.172C151.317 39.2424 151.184 39.2708 151.054 39.2522C150.816 39.2515 150.582 39.1818 150.382 39.0513C150.285 39.0039 150.203 38.9294 150.147 38.8367C150.09 38.7441 150.062 38.6371 150.064 38.5286ZM152.949 34.5357H157.409L155.17 27.0905L152.949 34.5357Z" fill="#FF6C37"></path>
<path d="M166.039 38.6201V25.2358C166.039 24.8519 166.316 24.6452 166.873 24.6452C167.132 24.6395 167.384 24.7276 167.583 24.8932C167.818 25.1245 168.008 25.398 168.143 25.6995L173.096 35.4188V25.224C173.094 25.1369 173.117 25.051 173.16 24.9756C173.204 24.9002 173.267 24.838 173.343 24.7958C173.524 24.6973 173.727 24.6457 173.932 24.6457C174.138 24.6457 174.341 24.6973 174.522 24.7958C174.597 24.839 174.659 24.9013 174.703 24.9765C174.746 25.0517 174.769 25.1371 174.769 25.224V38.6201C174.771 38.7087 174.75 38.7961 174.706 38.8731C174.662 38.9501 174.599 39.0138 174.522 39.0572C174.346 39.1684 174.14 39.224 173.932 39.2167C173.702 39.2071 173.48 39.13 173.293 38.9951C173.106 38.8603 172.963 38.6734 172.881 38.4577L167.721 28.4431V38.6201C167.724 38.7088 167.703 38.7965 167.659 38.8736C167.615 38.9508 167.551 39.0143 167.474 39.0572C167.295 39.1627 167.092 39.2183 166.885 39.2183C166.677 39.2183 166.474 39.1627 166.295 39.0572C166.217 39.0145 166.152 38.9512 166.107 38.8742C166.062 38.7972 166.038 38.7094 166.039 38.6201Z" fill="#FF6C37"></path>
<path d="M36.0758 0.260661C29.7982 -0.545494 23.4225 0.528037 17.7551 3.34549C12.0876 6.16295 7.38288 10.5978 4.23593 16.0891C1.08897 21.5805 -0.358884 27.8818 0.0754554 34.196C0.509795 40.5103 2.80682 46.5539 6.67605 51.5627C10.5453 56.5714 15.8129 60.3203 21.8128 62.3351C27.8127 64.35 34.2753 64.5405 40.3834 62.8823C46.4915 61.2242 51.9707 57.792 56.1281 53.0197C60.2855 48.2475 62.9344 42.3496 63.7398 36.0718C64.8196 27.6546 62.5118 19.1531 57.3239 12.4374C52.136 5.7216 44.4929 1.34156 36.0758 0.260661Z" fill="#FF6C37"></path>
<path d="M23.1351 34.0224C23.1475 34.0477 23.1684 34.068 23.194 34.0797C23.2197 34.0913 23.2487 34.0937 23.2759 34.0864L28.3959 32.9824L26.2423 30.8L23.1735 33.8688C23.1493 33.8851 23.132 33.9099 23.1249 33.9382C23.1178 33.9666 23.1214 33.9966 23.1351 34.0224Z" fill="white"></path>
<path d="M47.1095 12.0384C46.3959 12.0391 45.6917 12.1999 45.0485 12.5088C44.4053 12.8178 43.8396 13.267 43.3931 13.8236C42.9465 14.3801 42.6305 15.0296 42.4682 15.7245C42.3059 16.4193 42.3015 17.1416 42.4554 17.8384C42.6092 18.5351 42.9174 19.1885 43.3572 19.7504C43.7969 20.3122 44.3571 20.7683 44.9965 21.085C45.6359 21.4017 46.3382 21.571 47.0516 21.5804C47.7651 21.5898 48.4716 21.439 49.1191 21.1392L45.8743 17.8944C45.837 17.8573 45.8074 17.8131 45.7873 17.7645C45.7671 17.7159 45.7567 17.6638 45.7567 17.6112C45.7567 17.5586 45.7671 17.5065 45.7873 17.4579C45.8074 17.4093 45.837 17.3652 45.8743 17.328L50.1143 13.0912C49.2627 12.4066 48.2021 12.0349 47.1095 12.0384Z" fill="white"></path>
<path d="M50.6966 13.6416L46.7222 17.6L49.839 20.7168C50.0686 20.5555 50.2828 20.3734 50.479 20.1728C51.3332 19.3128 51.8304 18.1614 51.8708 16.9499C51.9112 15.7385 51.4917 14.5566 50.6966 13.6416Z" fill="white"></path>
<path d="M42.7447 20.9472H42.6743C42.5916 20.9466 42.5091 20.9541 42.4279 20.9696H42.3991C42.3099 20.9888 42.2222 21.0145 42.1367 21.0464L42.0695 21.0784C42.0051 21.1053 41.943 21.1374 41.8839 21.1744L41.8135 21.2192C41.736 21.2726 41.6632 21.3326 41.5959 21.3984L29.8103 33.1872L31.2695 34.6464L43.7495 23.6928C43.82 23.6309 43.8843 23.5623 43.9415 23.488L43.9959 23.4176C44.0385 23.3551 44.077 23.2899 44.1111 23.2224C44.1303 23.184 44.1463 23.1456 44.1623 23.1072C44.1838 23.0561 44.202 23.0038 44.2167 22.9504C44.2167 22.912 44.2391 22.8736 44.2487 22.8352C44.2645 22.7559 44.2752 22.6758 44.2807 22.5952V22.4896C44.2807 22.432 44.2807 22.3744 44.2807 22.3168C44.2807 22.2592 44.2807 22.24 44.2647 22.2016C44.2055 21.8996 44.0581 21.6219 43.8411 21.4038C43.624 21.1856 43.3472 21.0367 43.0455 20.976H42.9847C42.9055 20.9607 42.8253 20.9511 42.7447 20.9472Z" fill="white"></path>
<path d="M26.7927 30.2336L29.2119 32.64L41.0295 20.8224C41.414 20.4465 41.9152 20.2128 42.4503 20.16C40.3607 18.56 38.0823 18.9792 26.7927 30.2336Z" fill="white"></path>
<path d="M44.415 24.1536L44.271 24.2944L31.791 35.2448L33.9126 37.3632C39.1734 32.3872 43.8422 27.648 44.415 24.1536Z" fill="white"></path>
<path d="M13.2855 49.808C13.292 49.8307 13.3053 49.8508 13.3236 49.8657C13.342 49.8806 13.3644 49.8895 13.3879 49.8912L18.8279 50.2656L15.7783 47.216L13.3111 49.68C13.2951 49.6967 13.2842 49.7176 13.2797 49.7402C13.2752 49.7629 13.2772 49.7864 13.2855 49.808Z" fill="white"></path>
<path d="M16.3479 46.6496L19.5639 49.8656C19.6021 49.9064 19.6531 49.9328 19.7085 49.9404C19.7639 49.9479 19.8202 49.9362 19.8679 49.9072C19.9177 49.8824 19.9575 49.8411 19.9802 49.7904C20.003 49.7396 20.0074 49.6824 19.9927 49.6288L19.4519 47.3184C19.4169 47.1686 19.4328 47.0115 19.4971 46.8718C19.5615 46.7321 19.6705 46.6179 19.8071 46.5472C25.4455 43.7216 29.9927 40.8128 33.3303 37.9072L31.0903 35.6672L26.2903 36.7008L16.3479 46.6496Z" fill="white"></path>
<path d="M30.4022 34.9888L29.199 33.7856L27.535 35.4464C27.523 35.4608 27.5165 35.4789 27.5165 35.4976C27.5165 35.5163 27.523 35.5344 27.535 35.5488C27.5427 35.5659 27.5564 35.5795 27.5735 35.5872C27.5906 35.5948 27.6099 35.596 27.6278 35.5904L30.4022 34.9888Z" fill="white"></path>
<path d="M50.8087 16.2208C50.7923 16.1705 50.7653 16.1242 50.7295 16.0851C50.6937 16.0461 50.65 16.0151 50.6013 15.9943C50.5526 15.9736 50.4999 15.9635 50.447 15.9647C50.394 15.966 50.342 15.9785 50.2943 16.0016C50.2466 16.0246 50.2044 16.0576 50.1705 16.0983C50.1366 16.139 50.1118 16.1865 50.0978 16.2376C50.0838 16.2887 50.0808 16.3421 50.0892 16.3944C50.0976 16.4468 50.117 16.4967 50.1463 16.5408C50.2419 16.7333 50.2798 16.9493 50.2553 17.1628C50.2309 17.3762 50.1453 17.5781 50.0087 17.744C49.9638 17.7982 49.9352 17.864 49.9263 17.9338C49.9174 18.0037 49.9285 18.0745 49.9584 18.1383C49.9882 18.202 50.0356 18.2559 50.0949 18.2938C50.1542 18.3316 50.2231 18.3518 50.2935 18.352C50.3478 18.3514 50.4014 18.3391 50.4506 18.3159C50.4997 18.2927 50.5433 18.2592 50.5783 18.2176C50.8047 17.9422 50.9469 17.6074 50.9878 17.2532C51.0287 16.899 50.9665 16.5405 50.8087 16.2208Z" fill="#FF6C37"></path>
</svg>